<svg width="11" height="18" viewBox="0 0 11 18" fill="none" xmlns="http://www.w3.org/2000/svg">
<path d="M3.324 15.072C2.82 15.072 2.384 14.972 2.016 14.772C1.656 14.564 1.356 14.284 1.116 13.932C0.884 13.572 0.712 13.168 0.6 12.72C0.496 12.264 0.452 11.792 0.468 11.304C0.5 10.432 0.66 9.68 0.948 9.048C1.236 8.416 1.6 7.896 2.04 7.488C2.48 7.08 2.952 6.78 3.456 6.588C3.968 6.388 4.46 6.288 4.932 6.288C5.332 6.288 5.692 6.356 6.012 6.492C6.34 6.62 6.6 6.812 6.792 7.068C6.984 7.316 7.08 7.62 7.08 7.98C7.08 8.26 6.996 8.532 6.828 8.796C6.668 9.052 6.42 9.264 6.084 9.432C5.756 9.592 5.332 9.672 4.812 9.672C4.9 9.416 4.964 9.192 5.004 9C5.044 8.808 5.064 8.644 5.064 8.508C5.064 8.228 5 8.04 4.872 7.944C4.744 7.84 4.584 7.788 4.392 7.788C4.16 7.788 3.94 7.872 3.732 8.04C3.524 8.208 3.336 8.436 3.168 8.724C3.008 9.004 2.88 9.316 2.784 9.66C2.688 10.004 2.632 10.352 2.616 10.704C2.584 11.592 2.712 12.264 3 12.72C3.288 13.176 3.66 13.404 4.116 13.404C4.468 13.404 4.856 13.26 5.28 12.972C5.712 12.684 6.136 12.248 6.552 11.664L6.708 11.736C6.604 12.456 6.376 13.064 6.024 13.56C5.672 14.056 5.256 14.432 4.776 14.688C4.304 14.944 3.82 15.072 3.324 15.072Z" fill="#0D99FF"/>
<path d="M6.52 15.084C5.984 15.084 5.54 14.988 5.188 14.796C4.836 14.596 4.576 14.34 4.408 14.028C4.24 13.708 4.156 13.364 4.156 12.996C4.156 12.668 4.22 12.344 4.348 12.024C4.476 11.704 4.664 11.412 4.912 11.148C5.168 10.884 5.476 10.676 5.836 10.524C5.508 10.316 5.26 10.068 5.092 9.78C4.932 9.484 4.852 9.176 4.852 8.856C4.852 8.44 4.988 8.036 5.26 7.644C5.532 7.252 5.928 6.928 6.448 6.672C6.968 6.416 7.592 6.288 8.32 6.288C8.824 6.288 9.224 6.352 9.52 6.48C9.824 6.6 10.044 6.76 10.18 6.96C10.316 7.152 10.384 7.36 10.384 7.584C10.384 7.84 10.304 8.096 10.144 8.352C9.984 8.6 9.752 8.804 9.448 8.964C9.152 9.124 8.788 9.204 8.356 9.204C8.484 8.828 8.548 8.516 8.548 8.268C8.548 8.02 8.496 7.84 8.392 7.728C8.288 7.616 8.16 7.56 8.008 7.56C7.848 7.56 7.676 7.62 7.492 7.74C7.316 7.86 7.168 8.028 7.048 8.244C6.928 8.46 6.868 8.712 6.868 9C6.868 9.152 6.892 9.324 6.94 9.516C6.988 9.7 7.064 9.884 7.168 10.068C7.344 9.956 7.504 9.876 7.648 9.828C7.8 9.772 7.936 9.744 8.056 9.744C8.304 9.744 8.484 9.832 8.596 10.008C8.708 10.176 8.764 10.368 8.764 10.584C8.764 10.84 8.684 11.084 8.524 11.316C8.372 11.548 8.144 11.664 7.84 11.664C7.56 11.664 7.232 11.532 6.856 11.268C6.416 11.58 6.196 11.948 6.196 12.372C6.196 12.7 6.296 12.948 6.496 13.116C6.704 13.284 6.968 13.368 7.288 13.368C7.696 13.368 8.152 13.228 8.656 12.948C9.16 12.66 9.608 12.232 10 11.664L10.096 11.724C10.08 12.284 9.964 12.776 9.748 13.2C9.54 13.616 9.264 13.964 8.92 14.244C8.584 14.524 8.208 14.736 7.792 14.88C7.376 15.016 6.952 15.084 6.52 15.084Z" fill="#0D99FF" fill-opacity="0.82"/>
</svg>
